<svg xmlns="http://www.w3.org/2000/svg" xmlns:xlink="http://www.w3.org/1999/xlink" viewBox="0 0 275.83 449.09"><defs><style>.cls-1{fill:url(#linear-gradient);}.cls-2{fill:url(#linear-gradient-2);}.cls-3{fill:url(#linear-gradient-3);}</style><linearGradient id="linear-gradient" x1="141.77" y1="254.95" x2="44.19" y2="336.83" gradientUnits="userSpaceOnUse"><stop offset="0.09" stop-color="#fa8997"/><stop offset="0.18" stop-color="#f87888"/><stop offset="0.44" stop-color="#f3485d"/><stop offset="0.68" stop-color="#ef263d"/><stop offset="0.87" stop-color="#ed112a"/><stop offset="0.99" stop-color="#ec0923"/></linearGradient><linearGradient id="linear-gradient-2" x1="269.71" y1="162.85" x2="94.83" y2="263.82" gradientUnits="userSpaceOnUse"><stop offset="0.24" stop-color="#f1ec55"/><stop offset="0.43" stop-color="#efea52"/><stop offset="0.58" stop-color="#eae547"/><stop offset="0.72" stop-color="#e2dc36"/><stop offset="0.86" stop-color="#d6cf1e"/><stop offset="0.92" stop-color="#d0c911"/></linearGradient><linearGradient id="linear-gradient-3" x1="289.04" y1="192.55" x2="157.46" y2="268.52" gradientUnits="userSpaceOnUse"><stop offset="0.37" stop-color="#7ccef4"/><stop offset="0.46" stop-color="#64c5f2"/><stop offset="0.6" stop-color="#45baf0"/><stop offset="0.75" stop-color="#2fb2ee"/><stop offset="0.88" stop-color="#22aded"/><stop offset="1" stop-color="#1dabed"/></linearGradient></defs><g id="Layer_2" data-name="Layer 2"><g id="Layer_4" data-name="Layer 4"><path class="cls-1" d="M10.73,124.83l-7.13,8A14.17,14.17,0,0,0,0,142.41l.36,43.76v93.25a14.17,14.17,0,0,0,3.38,9.2l6.93,8.17a14.22,14.22,0,0,0,21.71-.05h0A14.22,14.22,0,0,1,54,296.63L180.79,444.14a14.21,14.21,0,0,0,21.51.06l32-36.82L67.81,215.14a14.18,14.18,0,0,1-3.47-9.3v-38a14.22,14.22,0,0,0-3.42-9.26L32.15,125A14.22,14.22,0,0,0,10.73,124.83Z"/><path class="cls-2" d="M45.79,133l111-128.06A14.21,14.21,0,0,1,180,7.55l18.09,34.09a14.21,14.21,0,0,1-1.82,16L103.65,164.34a14.23,14.23,0,0,0,0,18.68l153,175.13-22.4,49.23L67.44,215.85a14.21,14.21,0,0,1-3.5-9.34V167.2a14.22,14.22,0,0,0-3.46-9.3l-14.69-17A6,6,0,0,1,45.79,133Z"/><path class="cls-3" d="M249.09,144.38,221,177a14.22,14.22,0,0,0-.07,18.48L255.5,236.1l10.41,12.71c.26.31.52.61.81.9l5.08,5.23a14.19,14.19,0,0,1,3.72,12.85l-19.22,91L117.13,198.66,209.27,92.14a14.22,14.22,0,0,1,23.24,2.51l18.3,33.66A14.22,14.22,0,0,1,249.09,144.38Z"/></g></g></svg>